{"title":"Alyce.2011.DvDRip.XviD.Ac3.Feel-Free","uid":6802268,"size":1012715367,"categoryP":"video","categoryS":"movies","magnet":"?xt=urn:btih:1589c81ae0e80691da69eceff5498c316009f2f1&amp;dn=Alyce.2011.DvDRip.XviD.Ac3.Feel-Free&amp;tr=udp%3A%2F%2Ftracker.openbittorrent.com%3A80&amp;tr=udp%3A%2F%2Fopen.demonii.com%3A1337&amp;tr=udp%3A%2F%2Ftracker.coppersurfer.tk%3A6969&amp;tr=udp%3A%2F%2Fexodus.desync.com%3A6969","seeders":0,"leechers":1,"uploader":"HeroMaster","files":-1,"time":1320726672,"description":"::::: Feel-Free Presents :::::\n\n\n:::: Alyce.2011.DvDRip.XviD.Ac3.Feel-Free ::::\n\n\n::Information::\n\n\nAlyce.2011.DvDRip.XviD.Ac3.Feel-Free\n\n\nGenre:Horror | Thriller\nLanguage:English\nIMDb:http://www.imdb.com/title/tt1680051/\nSource:DVD Thanks!\n\n\n::Details::\n\n\nFormat : AVI\nFormat/Info : Audio Video Interleave\nFile size : 965 MiB\nDuration : 1h 29mn\nOverall bit rate : 1 499 Kbps\n\n\nVideo\nID : 0\nFormat : MPEG-4 Visual\nFormat profile : Advanced Simple@L5\nFormat settings, BVOP : Yes\nFormat settings, QPel : No\nFormat settings, GMC : No warppoints\nFormat settings, Matrix : Default (H.263)\nMuxing mode : Packed bitstream\nCodec ID : XVID\nCodec ID/Hint : XviD\nDuration : 1h 29mn\nBit rate : 1 042 Kbps\nWidth : 720 pixels\nHeight : 400 pixels\nDisplay aspect ratio : 16:9\nFrame rate : 25.000 fps\nColor space : YUV\nChroma subsampling : 4:2:0\nBit depth : 8 bits\nScan type : Progressive\nBits/(Pixel*Frame) : 0.145\nStream size : 670 MiB (69%)\nWriting library : XviD 1.2.1 (UTC 2008-12-04)\n\n\nAudio\nID : 1\nFormat : AC-3\nFormat/Info : Audio Coding 3\nMode extension : CM (complete main)\nCodec ID : 2000\nDuration : 1h 29mn\nBit rate mode : Constant\nBit rate : 448 Kbps\nChannel(s) : 6 channels\nChannel positions : Front: L C R, Side: L R, LFE\nSampling rate : 48.0 KHz\nBit depth : 16 bits\nStream size : 288 MiB (30%)\nAlignment : Split accross interleaves\nInterleave, duration : 40 ms (1.00 video frame)\nInterleave, preload duration : 500 ms\n\n\n::Plot::\n\n\nAfter accidentally knocking her best friend off a roof, Alyce is haunted \nby guilt and delves into a brutal nightmare wonderland of sex, drugs and \nviolence, her mind tearing itself apart a long with anyone else who gets \nin her way.\n\n\n::Poster::\n\n &lt;a href=&quot;\nhttp://shareimage.org/images/94x91qkopf47162i7tkl.jpg&quot; rel=&quot;nofollow&quot; target=&quot;_NEW&quot;&gt;\nhttp://shareimage.org/images/94x91qkopf47162i7tkl.jpg&lt;/a&gt;\n\n\n::Screens::\n\n &lt;a href=&quot;\nhttp://shareimage.org/images/nv9tbh7srlq3xnhwlolp.png&quot; rel=&quot;nofollow&quot; target=&quot;_NEW&quot;&gt;\nhttp://shareimage.org/images/nv9tbh7srlq3xnhwlolp.png&lt;/a&gt;\n &lt;a href=&quot;\nhttp://shareimage.org/images/wfru9x1bet2er65o93t.png&quot; rel=&quot;nofollow&quot; target=&quot;_NEW&quot;&gt;\nhttp://shareimage.org/images/wfru9x1bet2er65o93t.png&lt;/a&gt;\n &lt;a href=&quot;\nhttp://shareimage.org/images/ybjnktadsdswszhv0qvz.png&quot; rel=&quot;nofollow&quot; target=&quot;_NEW&quot;&gt;\nhttp://shareimage.org/images/ybjnktadsdswszhv0qvz.png&lt;/a&gt;\n\n\nENJOY!","torrent":{"xt":"urn:btih:1589c81ae0e80691da69eceff5498c316009f2f1","amp;dn":"Alyce.2011.DvDRip.XviD.Ac3.Feel-Free","amp;tr":["udp%3A%2F%2Ftracker.openbittorrent.com%3A80","udp%3A%2F%2Fopen.demonii.com%3A1337","udp%3A%2F%2Ftracker.coppersurfer.tk%3A6969","udp%3A%2F%2Fexodus.desync.com%3A6969"],"infoHash":"1589c81ae0e80691da69eceff5498c316009f2f1","infoHashBuffer":{"type":"Buffer","data":[21,137,200,26,224,232,6,145,218,105,236,239,245,73,140,49,96,9,242,241]},"announce":[],"urlList":[]}}